<svg width="302" height="193" viewBox="0 0 302 193" fill="none" xmlns="http://www.w3.org/2000/svg">
<path d="M34.9824 101.1C35.3887 101.835 36.0909 103.053 37.1279 104.634C39.2092 107.806 42.6048 112.411 47.5635 117.551C57.4272 127.773 73.5846 140.225 98.3877 147.847C123.865 155.675 143.79 155.531 156.888 153.713C163.473 152.799 168.412 151.448 171.519 150.419C173.069 149.906 174.162 149.471 174.774 149.213C175.079 149.085 175.268 149.002 175.33 148.973C175.315 148.98 175.29 148.996 175.26 149.011C175.244 149.019 175.221 149.027 175.201 149.037L175.175 149.048L175.159 149.059L192.415 183.208L192.394 183.219C192.382 183.224 192.369 183.229 192.356 183.235C192.328 183.249 192.293 183.267 192.261 183.283C192.196 183.315 192.124 183.356 192.042 183.396C191.877 183.476 191.673 183.569 191.438 183.678C190.97 183.895 190.361 184.166 189.618 184.479C188.131 185.104 186.096 185.897 183.544 186.742C178.437 188.433 171.236 190.348 162.151 191.609C143.906 194.142 118.324 193.998 87.1523 184.42C55.3067 174.634 33.7316 158.314 20.0312 144.115C13.209 137.044 8.35972 130.519 5.14551 125.621C3.53734 123.17 2.32662 121.116 1.4834 119.589C1.06231 118.826 0.73238 118.191 0.485352 117.705C0.361784 117.462 0.25784 117.254 0.175781 117.086C0.135727 117.004 0.0997411 116.931 0.0693359 116.867C0.0539512 116.835 0.0392721 116.799 0.0263672 116.771L0 116.718C0.0105808 116.712 0.433012 116.49 17.3145 108.583C33.7882 100.867 34.5938 100.48 34.6299 100.454L34.9824 101.1ZM232.105 0C274.082 0 301.019 27.9822 301.02 72.0576V190.291H247.152V87.7988C247.152 64.0128 233.158 49.32 210.072 49.3193C183.137 49.6691 167.046 69.9585 167.046 97.5928V142.108H113.173V2.09766H167.046V34.9775C180.338 11.5421 202.724 0.350538 232.105 0Z" fill="black"/>
</svg>
