<svg width="401" height="85" viewBox="0 0 401 85" fill="none" xmlns="http://www.w3.org/2000/svg">
<path d="M129.545 46.1034C129.545 46.1034 136.735 62.7753 159.71 70.6183C182.685 78.4613 196.972 71.7685 196.972 71.7685" stroke="black" stroke-width="14"/>
<path d="M18.5907 45.2071C18.7152 49.2463 19.6806 52.8815 21.4867 56.1128C23.2928 59.3441 25.9397 61.8918 29.4274 63.756C32.9774 65.5581 37.3059 66.4592 42.4129 66.4592C46.8348 66.4592 50.6339 65.8688 53.8102 64.6881C57.0488 63.4453 59.7268 61.985 61.8443 60.3073C63.9619 58.5673 65.5189 56.9517 66.5154 55.4603L75.3903 67.4845C73.4596 70.0944 71.0307 72.4246 68.1035 74.4753C65.1763 76.5259 61.5329 78.1105 57.1733 79.229C52.876 80.4097 47.551 81 41.1984 81C32.8529 81 25.5972 79.2911 19.4315 75.8734C13.2657 72.4557 8.47012 67.6398 5.0447 61.4258C1.68157 55.2117 0 47.9413 0 39.6145C0 32.1577 1.55701 25.4465 4.67102 19.481C7.78504 13.4534 12.3004 8.69965 18.217 5.21979C24.1959 1.73993 31.3581 0 39.7037 0C47.4887 0 54.2461 1.55351 59.9759 4.66053C65.7057 7.76755 70.1276 12.2417 73.2416 18.0829C76.4179 23.8619 78.0061 30.8527 78.0061 39.0552C78.0061 39.5524 77.9749 40.5777 77.9127 42.1312C77.9127 43.6847 77.8504 44.71 77.7258 45.2071H18.5907ZM59.322 30.6663C59.2597 28.6778 58.5746 26.4097 57.2667 23.8619C56.0211 21.3142 53.997 19.1082 51.1944 17.244C48.3918 15.3176 44.655 14.3544 39.984 14.3544C35.1884 14.3544 31.2959 15.2865 28.3064 17.1507C25.3169 18.9528 23.106 21.1277 21.6735 23.6755C20.2411 26.1611 19.4003 28.4914 19.1512 30.6663H59.322Z" fill="black"/>
<path d="M122.179 81C114.145 81 106.983 79.2601 100.693 75.7802C94.4646 72.2382 89.5756 67.4534 86.0256 61.4258C82.4756 55.336 80.7007 48.4384 80.7007 40.733C80.7007 33.0276 82.4756 26.099 86.0256 19.9471C89.5756 13.7952 94.4646 8.94822 100.693 5.40621C106.983 1.80207 114.145 0 122.179 0C130.214 0 137.313 1.80207 143.479 5.40621C149.645 8.94822 154.472 13.7952 157.959 19.9471C161.509 26.099 163.284 33.0276 163.284 40.733C163.284 48.4384 161.509 55.336 157.959 61.4258C154.472 67.4534 149.645 72.2382 143.479 75.7802C137.313 79.2601 130.214 81 122.179 81ZM122.179 64.2221C126.664 64.2221 130.556 63.1968 133.857 61.1461C137.158 59.0955 139.711 56.2992 141.517 52.7572C143.324 49.2152 144.227 45.1761 144.227 40.6398C144.227 36.1036 143.324 32.0644 141.517 28.5224C139.711 24.9183 137.158 22.0598 133.857 19.9471C130.556 17.8343 126.664 16.7779 122.179 16.7779C117.695 16.7779 113.772 17.8343 110.408 19.9471C107.108 22.0598 104.523 24.9183 102.654 28.5224C100.848 32.0644 99.9453 36.1036 99.9453 40.6398C99.9453 45.1761 100.848 49.2152 102.654 52.7572C104.523 56.2992 107.108 59.0955 110.408 61.1461C113.772 63.1968 117.695 64.2221 122.179 64.2221Z" fill="black"/>
<path d="M216.695 0C221.864 0 226.877 1.05639 231.735 3.16916C236.593 5.28193 240.579 8.66859 243.693 13.3291C246.869 17.9275 248.458 23.9241 248.458 31.3188V78.7629H228.372V34.954C228.372 28.0564 226.722 22.9919 223.421 19.7606C220.182 16.4672 215.978 14.8205 210.809 14.8205C207.384 14.8205 204.114 15.7837 201 17.71C197.886 19.6364 195.332 22.2463 193.339 25.5397C191.409 28.8331 190.443 32.6237 190.443 36.9114V61.8918H170.451V2.23705H190.443V15.1001C191.004 12.9873 192.499 10.7814 194.928 8.48217C197.419 6.12083 200.564 4.13233 204.363 2.51669C208.162 0.838895 212.273 0 216.695 0Z" fill="black"/>
<path d="M296.935 64.8746C301.357 64.8746 304.939 64.16 307.679 62.7307C310.481 61.2394 312.288 60.1519 313.097 59.4684L322.533 73.4499C321.785 74.0713 320.228 75.0035 317.862 76.2463C315.495 77.4269 312.474 78.5144 308.8 79.5086C305.188 80.5029 301.077 81 296.468 81C288.87 81 281.957 79.4154 275.729 76.2463C269.563 73.015 264.612 68.3855 260.875 62.3579C257.201 56.2681 255.363 48.9666 255.363 40.4534C255.363 31.878 257.201 24.5765 260.875 18.5489C264.612 12.5213 269.563 7.9229 275.729 4.75374C281.957 1.58458 288.87 0 296.468 0C301.015 0 305.063 0.528192 308.613 1.58458C312.225 2.57882 315.215 3.72842 317.581 5.03337C319.948 6.33832 321.536 7.36364 322.346 8.10932L312.724 22.0909C312.288 21.6559 311.385 20.9724 310.014 20.0403C308.706 19.046 306.963 18.145 304.783 17.3372C302.603 16.5293 299.987 16.1254 296.935 16.1254C293.199 16.1254 289.618 17.1197 286.192 19.1082C282.767 21.0967 279.964 23.924 277.784 27.5903C275.604 31.1945 274.515 35.4822 274.515 40.4534C274.515 45.4246 275.604 49.7434 277.784 53.4097C279.964 57.076 282.767 59.9033 286.192 61.8918C289.618 63.8803 293.199 64.8746 296.935 64.8746Z" fill="black"/>
<path d="M341.585 45.2071C341.709 49.2463 342.675 52.8815 344.481 56.1128C346.287 59.3441 348.934 61.8918 352.421 63.756C355.971 65.5581 360.3 66.4592 365.407 66.4592C369.829 66.4592 373.628 65.8688 376.804 64.6881C380.043 63.4453 382.721 61.985 384.838 60.3073C386.956 58.5673 388.513 56.9517 389.509 55.4603L398.384 67.4845C396.454 70.0944 394.025 72.4246 391.097 74.4753C388.17 76.5259 384.527 78.1105 380.167 79.229C375.87 80.4097 370.545 81 364.192 81C355.847 81 348.591 79.2911 342.425 75.8734C336.26 72.4557 331.464 67.6398 328.039 61.4258C324.675 55.2117 322.994 47.9413 322.994 39.6145C322.994 32.1577 324.551 25.4465 327.665 19.481C330.779 13.4534 335.294 8.69965 341.211 5.21979C347.19 1.73993 354.352 0 362.698 0C370.483 0 377.24 1.55351 382.97 4.66053C388.7 7.76755 393.122 12.2417 396.236 18.0829C399.412 23.8619 401 30.8527 401 39.0552C401 39.5524 400.969 40.5777 400.907 42.1312C400.907 43.6847 400.844 44.71 400.72 45.2071H341.585ZM382.316 30.6663C382.254 28.6778 381.569 26.4097 380.261 23.8619C379.015 21.3142 376.991 19.1082 374.188 17.244C371.386 15.3176 367.649 14.3544 362.978 14.3544C358.182 14.3544 354.29 15.2865 351.3 17.1507C348.311 18.9528 346.1 21.1277 344.668 23.6755C343.235 26.1611 342.394 28.4914 342.145 30.6663H382.316Z" fill="black"/>
<path d="M18.5907 45.2071C18.7152 49.2463 19.6806 52.8815 21.4867 56.1128C23.2928 59.3441 25.9397 61.8918 29.4274 63.756C32.9774 65.5581 37.3059 66.4592 42.4129 66.4592C46.8348 66.4592 50.6339 65.8688 53.8102 64.6881C57.0488 63.4453 59.7268 61.985 61.8443 60.3073C63.9619 58.5673 65.5189 56.9517 66.5154 55.4603L75.3903 67.4845C73.4596 70.0944 71.0307 72.4246 68.1035 74.4753C65.1763 76.5259 61.5329 78.1105 57.1733 79.229C52.876 80.4097 47.551 81 41.1984 81C32.8529 81 25.5972 79.2911 19.4315 75.8734C13.2657 72.4557 8.47012 67.6398 5.0447 61.4258C1.68157 55.2117 0 47.9413 0 39.6145C0 32.1577 1.55701 25.4465 4.67102 19.481C7.78504 13.4534 12.3004 8.69965 18.217 5.21979C24.1959 1.73993 31.3581 0 39.7037 0C47.4887 0 54.2461 1.55351 59.9759 4.66053C65.7057 7.76755 70.1276 12.2417 73.2416 18.0829C76.4179 23.8619 78.0061 30.8527 78.0061 39.0552C78.0061 39.5524 77.9749 40.5777 77.9127 42.1312C77.9127 43.6847 77.8504 44.71 77.7258 45.2071H18.5907ZM59.322 30.6663C59.2597 28.6778 58.5746 26.4097 57.2667 23.8619C56.0211 21.3142 53.997 19.1082 51.1944 17.244C48.3918 15.3176 44.655 14.3544 39.984 14.3544C35.1884 14.3544 31.2959 15.2865 28.3064 17.1507C25.3169 18.9528 23.106 21.1277 21.6735 23.6755C20.2411 26.1611 19.4003 28.4914 19.1512 30.6663H59.322Z" fill="black"/>
<path d="M18.5907 45.2071C18.7152 49.2463 19.6806 52.8815 21.4867 56.1128C23.2928 59.3441 25.9397 61.8918 29.4274 63.756C32.9774 65.5581 37.3059 66.4592 42.4129 66.4592C46.8348 66.4592 50.6339 65.8688 53.8102 64.6881C57.0488 63.4453 59.7268 61.985 61.8443 60.3073C63.9619 58.5673 65.5189 56.9517 66.5154 55.4603L75.3903 67.4845C73.4596 70.0944 71.0307 72.4246 68.1035 74.4753C65.1763 76.5259 61.5329 78.1105 57.1733 79.229C52.876 80.4097 47.551 81 41.1984 81C32.8529 81 25.5972 79.2911 19.4315 75.8734C13.2657 72.4557 8.47012 67.6398 5.0447 61.4258C1.68157 55.2117 0 47.9413 0 39.6145C0 32.1577 1.55701 25.4465 4.67102 19.481C7.78504 13.4534 12.3004 8.69965 18.217 5.21979C24.1959 1.73993 31.3581 0 39.7037 0C47.4887 0 54.2461 1.55351 59.9759 4.66053C65.7057 7.76755 70.1276 12.2417 73.2416 18.0829C76.4179 23.8619 78.0061 30.8527 78.0061 39.0552C78.0061 39.5524 77.9749 40.5777 77.9127 42.1312C77.9127 43.6847 77.8504 44.71 77.7258 45.2071H18.5907ZM59.322 30.6663C59.2597 28.6778 58.5746 26.4097 57.2667 23.8619C56.0211 21.3142 53.997 19.1082 51.1944 17.244C48.3918 15.3176 44.655 14.3544 39.984 14.3544C35.1884 14.3544 31.2959 15.2865 28.3064 17.1507C25.3169 18.9528 23.106 21.1277 21.6735 23.6755C20.2411 26.1611 19.4003 28.4914 19.1512 30.6663H59.322Z" fill="black"/>
</svg>
